<svg width="34" height="34" viewBox="0 0 34 34" fill="none" xmlns="http://www.w3.org/2000/svg">
<path d="M9.91663 31.1667C9.13746 31.1667 8.47045 30.8892 7.91558 30.3344C7.36072 29.7795 7.08329 29.1125 7.08329 28.3333C7.08329 27.5542 7.36072 26.8872 7.91558 26.3323C8.47045 25.7774 9.13746 25.5 9.91663 25.5C10.6958 25.5 11.3628 25.7774 11.9177 26.3323C12.4725 26.8872 12.75 27.5542 12.75 28.3333C12.75 29.1125 12.4725 29.7795 11.9177 30.3344C11.3628 30.8892 10.6958 31.1667 9.91663 31.1667ZM24.0833 31.1667C23.3041 31.1667 22.6371 30.8892 22.0823 30.3344C21.5274 29.7795 21.25 29.1125 21.25 28.3333C21.25 27.5542 21.5274 26.8872 22.0823 26.3323C22.6371 25.7774 23.3041 25.5 24.0833 25.5C24.8625 25.5 25.5295 25.7774 26.0843 26.3323C26.6392 26.8872 26.9166 27.5542 26.9166 28.3333C26.9166 29.1125 26.6392 29.7795 26.0843 30.3344C25.5295 30.8892 24.8625 31.1667 24.0833 31.1667ZM8.71246 8.5L12.1125 15.5833H22.0291L25.925 8.5H8.71246ZM7.36663 5.66667H28.2625C28.8055 5.66667 29.2187 5.90868 29.502 6.39271C29.7854 6.87674 29.7972 7.36667 29.5375 7.8625L24.5083 16.9292C24.2486 17.4014 23.9003 17.7674 23.4635 18.0271C23.0267 18.2868 22.5486 18.4167 22.0291 18.4167H11.475L9.91663 21.25H26.9166V24.0833H9.91663C8.85413 24.0833 8.05135 23.617 7.50829 22.6844C6.96524 21.7517 6.94163 20.825 7.43746 19.9042L9.34996 16.4333L4.24996 5.66667H1.41663V2.83334H6.02079L7.36663 5.66667Z" fill="white"/>
</svg>
