<svg width="24" height="24" viewBox="0 0 24 24" fill="none" xmlns="http://www.w3.org/2000/svg">
<g clip-path="url(#clip0_2_360)">
<path fill-rule="evenodd" clip-rule="evenodd" d="M12 3.75C7.02944 3.75 3 7.77944 3 12.75C3 17.7206 7.02944 21.75 12 21.75C16.9706 21.75 21 17.7206 21 12.75C20.9943 7.78179 16.9682 3.75568 12 3.75ZM12 20.25C7.85786 20.25 4.5 16.8921 4.5 12.75C4.5 8.60786 7.85786 5.25 12 5.25C16.1421 5.25 19.5 8.60786 19.5 12.75C19.4953 16.8902 16.1402 20.2453 12 20.25ZM16.2806 8.46937C16.4215 8.61005 16.5006 8.80094 16.5006 9C16.5006 9.19906 16.4215 9.38995 16.2806 9.53063L12.5306 13.2806C12.2376 13.5737 11.7624 13.5737 11.4694 13.2806C11.1763 12.9876 11.1763 12.5124 11.4694 12.2194L15.2194 8.46937C15.3601 8.32854 15.5509 8.24941 15.75 8.24941C15.9491 8.24941 16.1399 8.32854 16.2806 8.46937ZM9 1.5C9 1.08579 9.33579 0.75 9.75 0.75H14.25C14.6642 0.75 15 1.08579 15 1.5C15 1.91421 14.6642 2.25 14.25 2.25H9.75C9.33579 2.25 9 1.91421 9 1.5Z" fill="#121417"/>
</g>
<defs>
<clipPath id="clip0_2_360">
<rect width="24" height="24" fill="white"/>
</clipPath>
</defs>
</svg>
