<svg width="56" height="32" viewBox="0 0 56 32" fill="none" xmlns="http://www.w3.org/2000/svg">
<rect width="56" height="32" rx="16" fill="#FFEC70"/>
<rect x="4" y="4" width="24" height="24" rx="12" fill="#FFFDED"/>
<path d="M49.9417 19.2751C49.8083 19.0501 49.4333 18.7001 48.5 18.8667C47.9833 18.9584 47.4583 19.0001 46.9333 18.9751C44.9917 18.8917 43.2333 18.0001 42.0083 16.6251C40.925 15.4167 40.2583 13.8417 40.25 12.1417C40.25 11.1917 40.4333 10.2751 40.8083 9.40839C41.175 8.56672 40.9167 8.12506 40.7333 7.94172C40.5417 7.75006 40.0917 7.48339 39.2083 7.85006C35.8 9.28339 33.6917 12.7001 33.9417 16.3584C34.1917 19.8001 36.6083 22.7417 39.8083 23.8501C40.575 24.1167 41.3833 24.2751 42.2167 24.3084C42.35 24.3167 42.4833 24.3251 42.6167 24.3251C45.4083 24.3251 48.025 23.0084 49.675 20.7667C50.2333 19.9917 50.0833 19.5001 49.9417 19.2751Z" fill="#051724"/>
</svg>
