<svg width="53" height="52" viewBox="0 0 53 52" fill="none" xmlns="http://www.w3.org/2000/svg">
<rect x="1.09998" y="0.5" width="51" height="51" rx="9.5" stroke="#E6E6E6"/>
<g clip-path="url(#clip0_268_812)">
<path d="M19.9331 46.0001C23.6131 46.0001 26.5998 43.0134 26.5998 39.3334V32.6667H19.9331C16.2531 32.6667 13.2665 35.6534 13.2665 39.3334C13.2665 43.0134 16.2531 46.0001 19.9331 46.0001Z" fill="#292929"/>
<path d="M13.2665 25.9999C13.2665 22.3199 16.2531 19.3333 19.9331 19.3333H26.5998V32.6666H19.9331C16.2531 32.6666 13.2665 29.6799 13.2665 25.9999Z" fill="#292929"/>
<path d="M13.2665 12.6667C13.2665 8.98667 16.2531 6 19.9331 6H26.5998V19.3333H19.9331C16.2531 19.3333 13.2665 16.3467 13.2665 12.6667Z" fill="#292929"/>
<path d="M26.5999 6H33.2665C36.9465 6 39.9332 8.98667 39.9332 12.6667C39.9332 16.3467 36.9465 19.3333 33.2665 19.3333H26.5999V6Z" fill="#292929"/>
<path d="M39.9332 25.9999C39.9332 29.6799 36.9465 32.6666 33.2665 32.6666C29.5865 32.6666 26.5999 29.6799 26.5999 25.9999C26.5999 22.3199 29.5865 19.3333 33.2665 19.3333C36.9465 19.3333 39.9332 22.3199 39.9332 25.9999Z" fill="#292929"/>
</g>
<defs>
<clipPath id="clip0_268_812">
<rect width="40" height="40" fill="white" transform="translate(6.59998 6)"/>
</clipPath>
</defs>
</svg>
