<svg width="53" height="52" viewBox="0 0 53 52" fill="none" xmlns="http://www.w3.org/2000/svg">
<rect x="0.899902" y="0.5" width="51" height="51" rx="9.5" stroke="#E6E6E6"/>
<path d="M26.3906 9.33325C23.0942 9.33325 19.8719 10.3107 17.131 12.1421C14.3902 13.9734 12.254 16.5764 10.9926 19.6219C9.7311 22.6673 9.40104 26.0184 10.0441 29.2514C10.6872 32.4844 12.2746 35.4542 14.6054 37.785C16.9363 40.1159 19.906 41.7033 23.139 42.3463C26.3721 42.9894 29.7232 42.6594 32.7686 41.3979C35.814 40.1365 38.417 38.0002 40.2484 35.2594C42.0797 32.5186 43.0572 29.2963 43.0572 25.9999C43.0574 23.8112 42.6264 21.6438 41.7889 19.6216C40.9514 17.5995 39.7237 15.7621 38.1761 14.2144C36.6284 12.6667 34.791 11.4391 32.7688 10.6016C30.7466 9.76404 28.5793 9.33307 26.3906 9.33325ZM31.6897 34.5874C31.6273 34.7429 31.5324 34.8833 31.4113 34.9992C31.2903 35.1151 31.1458 35.2037 30.9877 35.2592C30.8295 35.3147 30.6613 35.3357 30.4944 35.3209C30.3275 35.306 30.1656 35.2557 30.0197 35.1732L25.4953 31.6576L22.5914 34.3366C22.524 34.3864 22.4452 34.4184 22.3622 34.4297C22.2792 34.4411 22.1947 34.4314 22.1164 34.4015L22.6731 29.4207L22.6909 29.4349L22.7023 29.3365C22.7023 29.3365 30.844 21.924 31.1756 21.6082C31.5114 21.2932 31.4006 21.2249 31.4006 21.2249C31.4197 20.8406 30.7981 21.2249 30.7981 21.2249L20.0106 28.1649L15.5181 26.6349C15.5181 26.6349 14.8281 26.3874 14.7631 25.8433C14.6947 25.3033 15.5406 25.0099 15.5406 25.0099L33.4022 17.9141C33.4022 17.9141 34.8706 17.2599 34.8706 18.3433L31.6897 34.5874Z" fill="black"/>
</svg>
