<svg width="53" height="52" viewBox="0 0 53 52" fill="none" xmlns="http://www.w3.org/2000/svg">
<rect x="1.30005" y="0.5" width="51" height="51" rx="9.5" stroke="#E6E6E6"/>
<path d="M45.3683 14.4489C44.0015 15.0561 42.5331 15.4645 40.9919 15.6489C42.5659 14.7061 43.7727 13.2137 44.3411 11.4341C42.8699 12.3069 41.2391 12.9409 39.5019 13.2837C38.1123 11.8025 36.1327 10.8769 33.9415 10.8769C29.0983 10.8121 25.3747 15.5437 26.5207 20.2309C20.1891 19.9137 14.5759 16.8801 10.8167 12.2693C8.76513 15.6149 9.92993 20.3993 13.1751 22.4417C11.9267 22.4017 10.7511 22.0589 9.72433 21.4889C9.67673 25.2109 12.3171 28.3533 15.8359 29.0545C14.7547 29.3561 13.5091 29.4033 12.3951 29.1857C13.3651 32.2121 16.1787 34.4161 19.5123 34.4773C16.4983 36.8857 12.2787 38.1413 8.23193 37.6325C24.5047 47.6473 42.4939 34.5265 41.5651 18.3921C43.0543 17.3169 44.3471 15.9757 45.3683 14.4489Z" fill="#292929"/>
</svg>
