<svg width="14" height="14" viewBox="0 0 14 14" fill="none" xmlns="http://www.w3.org/2000/svg">
<path d="M12.9625 13.75C11.35 13.75 9.77813 13.3906 8.24688 12.6719C6.71563 11.9531 5.35938 11.0031 4.17813 9.82187C2.99688 8.64062 2.04688 7.28438 1.32812 5.75313C0.609375 4.22187 0.25 2.65 0.25 1.0375C0.25 0.8125 0.325 0.625 0.475 0.475C0.625 0.325 0.8125 0.25 1.0375 0.25H4.075C4.25 0.25 4.40625 0.30625 4.54375 0.41875C4.68125 0.53125 4.7625 0.675 4.7875 0.85L5.275 3.475C5.3 3.65 5.29688 3.80938 5.26562 3.95312C5.23438 4.09687 5.1625 4.225 5.05 4.3375L3.23125 6.175C3.75625 7.075 4.41563 7.91875 5.20938 8.70625C6.00313 9.49375 6.875 10.175 7.825 10.75L9.5875 8.9875C9.7 8.875 9.84688 8.79062 10.0281 8.73438C10.2094 8.67813 10.3875 8.6625 10.5625 8.6875L13.15 9.2125C13.325 9.25 13.4688 9.33438 13.5812 9.46563C13.6937 9.59688 13.75 9.75 13.75 9.925V12.9625C13.75 13.1875 13.675 13.375 13.525 13.525C13.375 13.675 13.1875 13.75 12.9625 13.75ZM2.51875 4.75L3.75625 3.5125L3.4375 1.75H1.76875C1.83125 2.2625 1.91875 2.76875 2.03125 3.26875C2.14375 3.76875 2.30625 4.2625 2.51875 4.75ZM9.23125 11.4625C9.71875 11.675 10.2156 11.8438 10.7219 11.9688C11.2281 12.0938 11.7375 12.175 12.25 12.2125V10.5625L10.4875 10.2063L9.23125 11.4625Z" fill="#282828"/>
</svg>
