<svg width="22" height="27" viewBox="0 0 22 27" fill="none" xmlns="http://www.w3.org/2000/svg">
<path d="M2.53816 0C1.16616 0 0.660156 0.5566 0.660156 2.0658V20.2873C0.660156 20.4578 0.667156 20.6162 0.679156 20.7614C0.713156 21.0936 0.716156 21.4137 0.996156 21.7756C1.02216 21.8174 1.30616 22.0462 1.30616 22.0462C1.45716 22.1298 1.56316 22.187 1.73616 22.2662L10.0702 26.1074C10.5012 26.3241 10.6832 26.411 10.9962 26.3989H11.0002C11.3172 26.411 11.4992 26.3241 11.9302 26.1074L20.2632 22.2662C20.4372 22.187 20.5392 22.1298 20.6942 22.0462C20.6942 22.0462 20.9782 21.813 21.0042 21.7756C21.2842 21.4137 21.2872 21.0936 21.3212 20.7614C21.3332 20.6162 21.3412 20.4578 21.3412 20.2884V2.0647C21.3402 0.5566 20.8332 0 19.4612 0H2.53816ZM15.8942 3.421H16.5742C17.7082 3.421 18.2602 4.0282 18.2602 5.2877V7.3546H16.8882V5.3713C16.8882 4.9676 16.7182 4.7806 16.3632 4.7806H16.1292C15.7622 4.7806 15.5922 4.9676 15.5922 5.3713V11.7656C15.5922 12.1682 15.7622 12.3552 16.1292 12.3552H16.3892C16.7412 12.3552 16.9112 12.1682 16.9112 11.7656V9.4776H18.2872V11.836C18.2872 13.0955 17.7232 13.7148 16.5862 13.7148H15.8942C14.7532 13.7148 14.1942 13.0911 14.1942 11.836V5.3009C14.1942 4.0447 14.7532 3.421 15.8942 3.421ZM3.70616 3.5046H6.82016V4.9093H5.10416V7.7737H6.75616V9.1751H5.10416V12.2265H6.84316V13.6279H3.70616V3.5046ZM7.52316 3.5046H9.71916C10.8562 3.5046 11.4192 4.1283 11.4192 5.3878V8.0773C11.4192 9.3368 10.8562 9.9572 9.71916 9.9572H8.92516V13.6279H7.52316V3.5046ZM12.0512 3.5046H13.4492V13.6279H12.0512V3.5046ZM8.92116 4.8686V8.5976H9.50016C9.85116 8.5976 10.0212 8.4106 10.0212 8.0036V5.4626C10.0212 5.0556 9.85116 4.8686 9.50016 4.8686H8.92116ZM5.06616 16.038H5.27416L5.32016 16.0457H5.39516L5.43316 16.0589H5.47116L5.50916 16.071L5.54616 16.0798L5.58016 16.0875L5.61416 16.0963L5.64816 16.104L5.68616 16.1172L5.71616 16.1249L5.74616 16.1381L5.78416 16.1502L5.81416 16.1667L5.85316 16.1832L5.88716 16.1997L5.91716 16.2217L5.95516 16.2371L5.98116 16.2591L6.01916 16.2789L6.04916 16.3009L6.08316 16.3207L6.11316 16.346L6.14316 16.3669L6.17316 16.3911L6.20416 16.4164L6.23416 16.445L6.26416 16.4703L6.24216 16.5033L6.21516 16.533L6.19316 16.566L6.16616 16.599L6.14416 16.6287L6.12116 16.6573L6.09416 16.6903L6.07216 16.7233L6.04916 16.753L6.02316 16.786L6.00016 16.819L5.97316 16.852L5.95116 16.8817L5.92816 16.9147L5.90216 16.9477L5.87916 16.9818L5.85316 17.0104L5.83016 17.0434L5.80016 17.0192L5.77016 16.9906L5.74016 16.9686L5.70516 16.9444L5.67916 16.9235L5.64516 16.9026L5.61516 16.8817L5.58016 16.8608L5.55016 16.8443L5.52016 16.8278L5.49016 16.8157L5.45616 16.8025L5.41816 16.7915L5.38816 16.7827L5.35016 16.7739L5.31216 16.7651L5.27416 16.7618H5.23316L5.18716 16.753H5.11216L5.07416 16.7574H5.03616L4.99816 16.7695L4.96416 16.7783L4.93016 16.7904L4.89316 16.8025L4.86316 16.819L4.82516 16.8366L4.79816 16.8564L4.76816 16.8784L4.73816 16.8982L4.71116 16.9235L4.68516 16.9488L4.65816 16.973L4.63616 17.0027L4.60616 17.0313L4.58616 17.0643L4.56816 17.094L4.54516 17.127L4.53016 17.1644L4.51016 17.1974L4.49216 17.2348L4.48116 17.2722L4.46516 17.3096L4.45516 17.3514L4.45016 17.3932L4.43916 17.4306L4.43116 17.4768V17.5175L4.42416 17.5593V17.6583L4.42816 17.7012L4.43116 17.7386L4.43516 17.7793L4.44316 17.8211L4.45416 17.8541L4.45816 17.8959L4.46916 17.9289L4.48116 17.9619L4.49616 18.0048L4.51516 18.0455L4.53016 18.0785L4.54916 18.1115L4.57116 18.1456L4.59416 18.1786L4.61316 18.2083L4.64316 18.2369L4.66616 18.2666L4.69216 18.2908L4.72216 18.3161L4.75216 18.3414L4.78316 18.3623L4.81316 18.3821L4.84716 18.3997L4.88516 18.4162L4.91516 18.4327L4.95316 18.4448L4.99116 18.458L5.02916 18.4657L5.06616 18.4745L5.10416 18.4789L5.15016 18.4822H5.27416L5.32016 18.4745H5.35716L5.39516 18.4613L5.43316 18.4536L5.47116 18.4404L5.50516 18.4327L5.53916 18.4162L5.56916 18.3997L5.60716 18.3821L5.63016 18.3656L5.66016 18.3447V17.963H5.10816V17.347H6.35516V18.7198L6.32916 18.744L6.29916 18.7693L6.27216 18.7902L6.24216 18.8155L6.21216 18.8353L6.18216 18.8606L6.15216 18.8815L6.12116 18.9024L6.08316 18.9233L6.04916 18.9442L6.01916 18.9651L5.98116 18.9816L5.95116 19.0025L5.91316 19.019L5.87516 19.0355L5.83716 19.052L5.80316 19.0685L5.76916 19.0806L5.73516 19.0938L5.69816 19.1059L5.66416 19.118L5.62616 19.1312L5.59216 19.1389L5.55416 19.1477L5.51616 19.1565L5.47816 19.1642L5.44116 19.1686L5.40316 19.173L5.36516 19.1774L5.32016 19.1807L5.28216 19.1851L5.24016 19.1895H5.04416L5.00216 19.1807H4.96416L4.92716 19.173H4.88916L4.85116 19.1598L4.81316 19.1521L4.77516 19.1433L4.73816 19.1356L4.70816 19.1224L4.67016 19.1147L4.63216 19.1015L4.59816 19.085L4.56416 19.0729L4.52616 19.0564L4.49216 19.0399L4.45416 19.0234L4.42416 19.0058L4.38616 18.986L4.36016 18.964L4.32216 18.9442L4.29516 18.9222L4.26516 18.9024L4.23516 18.8771L4.20516 18.8518L4.17116 18.8276L4.14816 18.8023L4.11816 18.777L4.09116 18.7484L4.06516 18.7231L4.03816 18.6945L4.01616 18.6648L3.98916 18.6362L3.96716 18.6032L3.94416 18.5735L3.92516 18.5405L3.90216 18.5075L3.88316 18.4745L3.86516 18.4415L3.84516 18.403L3.82716 18.37L3.81216 18.3326L3.79716 18.2952L3.78116 18.2578L3.76616 18.2204L3.75516 18.1874L3.74016 18.15L3.73216 18.1126L3.72116 18.0752L3.71316 18.0334L3.70216 17.996L3.69416 17.9542L3.69116 17.9168L3.68316 17.875L3.67916 17.8376L3.67616 17.7958L3.67216 17.7551L3.66816 17.7133V17.4845L3.67616 17.4427V17.3976L3.68616 17.3558V17.314L3.69816 17.2722L3.71016 17.2315L3.71716 17.1897L3.72816 17.1523L3.74016 17.1105L3.75116 17.0731L3.76616 17.0313L3.78116 16.9939L3.79716 16.9565L3.81216 16.9191L3.82716 16.8817L3.84616 16.8443L3.86516 16.8113L3.88316 16.7783L3.90316 16.7453L3.92116 16.7123L3.94416 16.6782L3.96716 16.6452L3.98916 16.6122L4.01616 16.5825L4.03816 16.5539L4.06116 16.5242L4.09116 16.4956L4.11416 16.4659L4.14416 16.4406L4.17116 16.412L4.20116 16.3867L4.23116 16.3625L4.26116 16.3405L4.29116 16.3163L4.32116 16.2954L4.35216 16.2745L4.38616 16.2536L4.42416 16.2327L4.45416 16.2129L4.49216 16.1953L4.52616 16.1788L4.56416 16.1579L4.59416 16.1469L4.63216 16.1337L4.66616 16.1172L4.70016 16.1084L4.73416 16.0963L4.77216 16.0875L4.80616 16.0754L4.84316 16.0666H4.88116L4.91916 16.0545H4.95716L4.99516 16.0457H5.03216L5.06616 16.038ZM17.0552 16.0457H17.2622L17.3082 16.0545H17.3832L17.4212 16.0666H17.4662L17.5042 16.0798L17.5382 16.0875L17.5762 16.0963L17.6142 16.104L17.6482 16.1128L17.6862 16.1249L17.7232 16.1381L17.7532 16.1458L17.7912 16.1623L17.8292 16.1755L17.8592 16.192L17.8972 16.2085L17.9352 16.225L17.9692 16.247L17.9962 16.2624L18.0332 16.2844L18.0672 16.3042L18.0972 16.3251L18.1322 16.3504L18.1622 16.3702L18.1922 16.3955L18.2222 16.4208L18.2522 16.445L18.2302 16.478L18.2112 16.5121L18.1882 16.5451L18.1662 16.5781L18.1432 16.6155L18.1242 16.6485L18.1012 16.6815L18.0792 16.7156L18.0592 16.7486L18.0372 16.7816L18.0142 16.8146L17.9922 16.8487L17.9722 16.8861L17.9502 16.9191L17.9242 16.9521L17.9042 16.9851L17.8822 17.0192L17.8522 16.9939L17.8182 16.973L17.7882 16.9532L17.7582 16.9279L17.7232 16.9114L17.6932 16.8894L17.6552 16.874L17.6292 16.8575L17.5912 16.8399L17.5612 16.8234L17.5312 16.8113L17.4972 16.7948L17.4592 16.7827L17.4212 16.7695L17.3832 16.7574L17.3422 16.7486L17.3042 16.7409L17.2662 16.7321L17.2282 16.7277L17.1912 16.7233L17.1572 16.72H17.0732L17.0322 16.7277L16.9942 16.7365L16.9562 16.7442L16.9262 16.7618L16.9002 16.7783L16.8662 16.8113L16.8432 16.8487L16.8282 16.8861V16.9895L16.8472 17.0357L16.8622 17.061L16.8882 17.0896L16.9262 17.1116L16.9562 17.1314L16.9942 17.1479L17.0322 17.1644L17.0812 17.1809L17.1112 17.1897L17.1412 17.2018L17.1792 17.2106L17.2092 17.2227L17.2472 17.2315L17.2892 17.2436L17.3302 17.2557L17.3722 17.2689L17.4142 17.2766L17.4512 17.2898L17.4932 17.3019L17.5312 17.3107L17.5682 17.3228L17.6062 17.3349L17.6442 17.3481L17.6822 17.3602L17.7162 17.3723L17.7542 17.3855L17.7912 17.402L17.8292 17.4229L17.8672 17.4394L17.9052 17.4603L17.9432 17.4812L17.9732 17.5021L18.0032 17.5219L18.0372 17.5472L18.0642 17.5692L18.0982 17.5978L18.1242 17.6264L18.1542 17.6594L18.1812 17.6891L18.2002 17.7221L18.2262 17.7639L18.2452 17.7925L18.2602 17.8343L18.2792 17.8629L18.2902 17.9047L18.3022 17.9377L18.3092 17.9795L18.3172 18.0213L18.3242 18.0631L18.3282 18.1049L18.3322 18.1456V18.2501L18.3282 18.2952L18.3242 18.337L18.3212 18.3832L18.3132 18.425L18.3022 18.4657L18.2942 18.5075L18.2832 18.5493L18.2682 18.5867L18.2532 18.6197L18.2372 18.6571L18.2192 18.6901L18.1962 18.7231L18.1762 18.7561L18.1582 18.7902L18.1322 18.8199L18.1092 18.8485L18.0822 18.8738L18.0522 18.9024L18.0262 18.9277L17.9962 18.953L17.9662 18.9728L17.9352 18.9981L17.8972 19.019L17.8672 19.0355L17.8292 19.0575L17.7912 19.0729L17.7542 19.0894L17.7162 19.1026L17.6782 19.1147L17.6482 19.1268L17.6102 19.1356L17.5722 19.1444L17.5422 19.1521L17.5042 19.1609H17.4662L17.4292 19.1686H17.3912L17.3532 19.1774H17.0732L17.0362 19.173L16.9982 19.1686L16.9562 19.1653L16.9182 19.1565L16.8812 19.1521L16.8432 19.1444L16.8052 19.1356L16.7632 19.1235L16.7262 19.1147L16.6882 19.1026L16.6502 19.0938L16.6122 19.0817L16.5752 19.0685L16.5372 19.052L16.5032 19.0399L16.4652 19.0278L16.4272 19.0102L16.3972 18.9937L16.3592 18.9772L16.3292 18.9563L16.2912 18.9398L16.2572 18.9189L16.2312 18.898L16.1932 18.8771L16.1662 18.8573L16.1322 18.8353L16.1022 18.8111L16.0722 18.7858L16.0422 18.7616L16.0122 18.7363L15.9852 18.711L15.9552 18.6824L15.9772 18.6494L16.0042 18.6197L16.0272 18.5867L16.0532 18.5537L16.0762 18.524L16.0982 18.491L16.1252 18.458L16.1482 18.4283L16.1742 18.3953L16.1972 18.3667L16.2232 18.3337L16.2462 18.3007L16.2682 18.271L16.2952 18.238L16.3182 18.205L16.3442 18.1753L16.3712 18.1423L16.3972 18.1665L16.4352 18.1918L16.4612 18.2171L16.4992 18.2413L16.5292 18.2633L16.5632 18.2875L16.5932 18.3084L16.6282 18.3249L16.6582 18.3458L16.6922 18.3623L16.7302 18.3788L16.7602 18.3953L16.7982 18.4074L16.8282 18.425L16.8662 18.436L16.9032 18.4492L16.9412 18.4624L16.9792 18.4701L17.0172 18.4789L17.0552 18.4866H17.0962L17.1342 18.4998H17.3422L17.3802 18.491L17.4172 18.4822L17.4472 18.4745L17.4772 18.4624L17.5042 18.4448L17.5382 18.4206L17.5582 18.3909L17.5762 18.3579L17.5872 18.3161V18.2204L17.5722 18.1797L17.5502 18.1467L17.5272 18.1214L17.4932 18.0961L17.4662 18.0796L17.4292 18.0631L17.3912 18.0466L17.3462 18.0246L17.3192 18.0169L17.2892 18.0081L17.2512 17.9971L17.2212 17.9883L17.1832 17.9751L17.1452 17.9674L17.1042 17.9542L17.0662 17.9465L17.0242 17.9333L16.9872 17.9256L16.9492 17.9124L16.9112 17.9047L16.8732 17.8915L16.8352 17.8805L16.7982 17.8717L16.7642 17.8585L16.7302 17.8464L16.6962 17.8332L16.6582 17.8167L16.6162 17.8002L16.5782 17.7837L16.5412 17.7672L16.5032 17.7463L16.4652 17.7254L16.4392 17.7045L16.4012 17.6836L16.3742 17.6594L16.3402 17.6374L16.3182 17.6132L16.2912 17.5846L16.2612 17.5549L16.2382 17.5263L16.2162 17.4966L16.1962 17.468L16.1782 17.435L16.1582 17.3976L16.1442 17.3679L16.1322 17.3349L16.1212 17.2975L16.1102 17.2645L16.1022 17.2227L16.0952 17.1853V17.1435L16.0872 17.1017V16.9235L16.0912 16.8817L16.0952 16.8399L16.1022 16.8069L16.1102 16.7651L16.1212 16.7321L16.1292 16.6903L16.1442 16.6573L16.1592 16.6155L16.1742 16.5825L16.1932 16.5407L16.2122 16.5077L16.2382 16.4747L16.2582 16.4417L16.2882 16.4087L16.3142 16.379L16.3372 16.346L16.3712 16.3163L16.3932 16.2954L16.4272 16.2701L16.4572 16.2459L16.4872 16.2239L16.5252 16.2041L16.5552 16.1876L16.5942 16.1667L16.6242 16.1502L16.6622 16.137L16.6992 16.1205L16.7372 16.1084L16.7642 16.0996L16.8012 16.0919L16.8312 16.0831L16.8692 16.0754L16.9072 16.0666L16.9452 16.0622L16.9832 16.0578L17.0212 16.0545L17.0552 16.0457ZM7.81816 16.0754H8.52516L8.54016 16.1128L8.55516 16.1502L8.57016 16.1876L8.58116 16.2294L8.59616 16.2668L8.61116 16.3042L8.62716 16.3416L8.64216 16.379L8.65316 16.4164L8.67216 16.4571L8.68716 16.4945L8.70216 16.533L8.71016 16.5704L8.72516 16.6078L8.74416 16.6452L8.75916 16.6859L8.77416 16.7233L8.78516 16.7607L8.80016 16.7981L8.82016 16.8355L8.83016 16.8729L8.84616 16.9147L8.85716 16.9565L8.87216 16.9895L8.89216 17.0313L8.90616 17.0643L8.92116 17.1061L8.93316 17.1479L8.94416 17.1809L8.96316 17.2227L8.97816 17.2557L8.99316 17.2975L9.00416 17.3305L9.02016 17.3723L9.03916 17.4141L9.05416 17.4515L9.06516 17.4889L9.07616 17.5263L9.09116 17.5637L9.11116 17.6011L9.12516 17.6418L9.14116 17.6803L9.15116 17.7177L9.16716 17.7551L9.18216 17.7925L9.19716 17.8299L9.21216 17.8706L9.22416 17.908L9.23916 17.9454L9.25816 17.9828L9.27316 18.0202L9.28816 18.0576L9.29616 18.0994L9.31116 18.1368L9.33016 18.1742L9.34516 18.2116L9.35616 18.249L9.37116 18.2864L9.38616 18.3282L9.40616 18.37L9.41616 18.403L9.43216 18.4448L9.44316 18.4778L9.45816 18.5196L9.47716 18.5614L9.49216 18.5944L9.50316 18.6362L9.51916 18.6692L9.53016 18.711L9.54916 18.744L9.56416 18.7858L9.57516 18.8276L9.59016 18.8606L9.60616 18.9024L9.62416 18.9354L9.64016 18.9772L9.65016 19.0179L9.66216 19.0509L9.67716 19.0927L9.69716 19.1257H8.91416L8.89416 19.0894L8.88416 19.052L8.86816 19.0146L8.85316 18.9728L8.84216 18.9354L8.82716 18.898L8.81216 18.8606L8.80016 18.8232L8.78516 18.7858L8.77016 18.7484L8.75916 18.711L8.74416 18.6692L8.72916 18.6318L8.71716 18.5944L8.70216 18.557H7.61716L7.60216 18.5988L7.59116 18.6318L7.57616 18.6736L7.55716 18.7143L7.54916 18.7473L7.53416 18.7902L7.51916 18.8232L7.50816 18.865L7.49316 18.898L7.47816 18.9398L7.46616 18.9728L7.45116 19.0146L7.43616 19.0553L7.42116 19.0883L7.41016 19.1301H6.63516L6.65016 19.0894L6.66516 19.052L6.68016 19.0146L6.69216 18.9728L6.70216 18.9354L6.72216 18.898L6.73716 18.8606L6.75216 18.8232L6.76316 18.7858L6.77816 18.744L6.79816 18.7066L6.81216 18.6692L6.82416 18.6318L6.83516 18.5944L6.85016 18.557L6.87016 18.5152L6.88416 18.4778L6.89916 18.4404L6.91116 18.403L6.92616 18.3656L6.94116 18.3282L6.95616 18.2864L6.97116 18.2446L6.98316 18.2116L6.99816 18.1698L7.01716 18.1368L7.03216 18.095L7.04316 18.0543L7.05416 18.0213L7.06916 17.9795L7.08916 17.9465L7.10316 17.9047L7.11916 17.8717L7.12916 17.8299L7.14516 17.7881L7.16416 17.7551L7.17516 17.7133L7.19016 17.6803L7.20216 17.6385L7.21716 17.5967L7.23616 17.5637L7.25116 17.5219L7.26216 17.4889L7.27716 17.4471L7.28916 17.4141L7.30816 17.3723L7.32316 17.3305L7.33816 17.2931L7.34916 17.2557L7.36416 17.2183L7.38416 17.1809L7.39816 17.1435L7.40616 17.1017L7.42116 17.0643L7.43616 17.0269L7.45516 16.9895L7.47016 16.9521L7.48116 16.9147L7.49716 16.8729L7.51216 16.8322L7.52716 16.7992L7.54216 16.7574L7.55316 16.7244L7.56816 16.6826L7.58316 16.6408L7.60316 16.6078L7.61716 16.566L7.62916 16.533L7.64016 16.4912L7.65516 16.4582L7.67516 16.4164L7.68916 16.3746L7.70116 16.3416L7.71616 16.2998L7.73116 16.2668L7.75016 16.225L7.76116 16.1832L7.77216 16.1502L7.78816 16.1084L7.81816 16.0754ZM10.0102 16.0963H10.7852L10.8072 16.1293L10.8272 16.1667L10.8492 16.1997L10.8682 16.2371L10.8872 16.2701L10.9062 16.3075L10.9242 16.3405L10.9472 16.379L10.9662 16.412L10.9852 16.445L11.0042 16.4824L11.0232 16.5154L11.0492 16.5528L11.0642 16.5858L11.0842 16.6243L11.1062 16.6573L11.1292 16.6903L11.1442 16.7277L11.1662 16.7607L11.1862 16.7981L11.2002 16.8311L11.2272 16.8696L11.2462 16.9026L11.2652 16.94L11.2842 16.973L11.3022 17.006L11.3252 17.0434L11.3442 17.0764L11.3632 17.1149L11.3822 17.1479L11.4012 17.1853L11.4232 17.2183L11.4432 17.2557L11.4612 17.2887L11.4842 17.2557L11.4992 17.2139L11.5222 17.1853L11.5442 17.1435L11.5642 17.1149L11.5782 17.0731L11.6052 17.0434L11.6242 17.0027L11.6392 16.973L11.6622 16.94L11.6842 16.8982L11.7042 16.8696L11.7222 16.8278L11.7412 16.7981L11.7642 16.7574L11.7822 16.7277L11.8022 16.6859L11.8202 16.6573L11.8402 16.6243L11.8622 16.5825L11.8812 16.5528L11.9002 16.5121L11.9222 16.4824L11.9422 16.4406L11.9602 16.412L11.9832 16.379L12.0022 16.3372L12.0242 16.3075L12.0442 16.2668L12.0622 16.2371L12.0822 16.1953L12.1042 16.1667L12.1232 16.1249L12.1422 16.0963H12.9242V19.1642H12.1902V17.3602L12.1722 17.3888L12.1492 17.4306L12.1302 17.4592L12.1072 17.4922L12.0882 17.534L12.0662 17.5637L12.0462 17.5967L12.0242 17.6385L12.0052 17.6671L11.9862 17.7001L11.9602 17.7331L11.9412 17.776L11.9182 17.8046L11.8992 17.8376L11.8812 17.8794L11.8582 17.908L11.8392 17.941L11.8162 17.9828L11.7972 18.0125L11.7752 18.0455L11.7552 18.0873L11.7372 18.1159L11.7142 18.1489L11.6952 18.1907L11.6732 18.2204L11.6502 18.2534L11.6312 18.2864L11.6122 18.3282L11.5892 18.3579L11.5672 18.3909L11.5522 18.4327L11.5252 18.4613L11.5062 18.4943L11.4842 18.5361L11.4642 18.5658H11.4502L11.4272 18.5284L11.4082 18.4954L11.3852 18.4569L11.3662 18.4239L11.3442 18.3865L11.3242 18.3535L11.3022 18.3161L11.2832 18.2831L11.2612 18.2457L11.2412 18.2127L11.2152 18.1742L11.2002 18.1412L11.1772 18.1038L11.1552 18.0708L11.1352 18.0334L11.1132 18.0004L11.0942 17.9586L11.0722 17.9256L11.0522 17.8882L11.0302 17.8552L11.0112 17.8167L10.9882 17.7837L10.9702 17.7463L10.9472 17.7133L10.9282 17.6759L10.9052 17.6429L10.8862 17.6055L10.8642 17.5725L10.8442 17.534L10.8222 17.501L10.8032 17.4636L10.7772 17.4306L10.7622 17.3932L10.7392 17.3602V19.1686H10.0142V16.1326L10.0102 16.0963ZM13.4802 16.0963H15.6792V16.7893H14.2092V17.281H15.5312V17.9333H14.2102V18.4613H15.6992V19.1554H13.4842V16.1205L13.4802 16.0963ZM8.16216 17.0357L8.14716 17.0775L8.13516 17.1105L8.12016 17.1523L8.10516 17.193L8.09416 17.2304L8.07916 17.2678L8.06316 17.3096L8.04816 17.3514L8.03716 17.3844L8.02216 17.4262L8.00716 17.4592L7.99516 17.501L7.98016 17.5428L7.96516 17.5758L7.95416 17.6176L7.93916 17.6506L7.92416 17.6924L7.90816 17.7342L7.89816 17.7672L7.88216 17.809L7.86716 17.8508L7.85616 17.8838L7.84016 17.9256H8.48316L8.46816 17.8838L8.45616 17.8464L8.44116 17.8046L8.42616 17.7672L8.41516 17.7298L8.40016 17.6924L8.38516 17.6506L8.37316 17.6132L8.35816 17.5758L8.34316 17.5384L8.33216 17.501L8.31716 17.4592L8.30516 17.4218L8.29016 17.3844L8.27516 17.347L8.26416 17.3096L8.24916 17.2689L8.23416 17.2271L8.22216 17.1941L8.20716 17.1523L8.19216 17.1105L8.18116 17.0731L8.16216 17.0357ZM7.01216 22.781H15.0252L10.9352 24.266L7.01216 22.781Z" fill="#BEBEBE"/>
</svg>
